<svg width="16" height="16" viewBox="0 0 16 16" fill="none" xmlns="http://www.w3.org/2000/svg">
<path d="M8.913 12.3915C8.66267 13.0623 7.3902 13.2098 6.47235 12.6732C5.40847 12.036 4.47671 10.3791 4.07341 10.1377C3.52409 9.8157 1 9.78216 1 9.78216L3.62144 3.13477C3.62144 3.13477 5.77005 4.29521 7.16073 3.98665C7.56943 3.87348 7.95021 3.68183 8.28024 3.4232" stroke="#00AD8C" stroke-width="1.2" stroke-linecap="round" stroke-linejoin="round"/>
<path d="M10.4085 11.2637C10.4827 11.4743 10.482 11.7028 10.4065 11.913C10.3309 12.1232 10.1848 12.3031 9.99127 12.4241C9.01779 12.9339 7.97478 11.5722 7.67578 11.371" stroke="#00AD8C" stroke-width="1.2" stroke-linecap="round" stroke-linejoin="round"/>
<path d="M12.1251 10.3785C12.0208 11.7201 10.9708 11.7201 10.6023 11.4316C10.2338 11.1432 8.94043 9.94922 8.94043 9.94922" stroke="#00AD8C" stroke-width="1.2" stroke-linecap="round" stroke-linejoin="round"/>
<path d="M9.47559 5.47559C10.5186 6.39455 12.9106 7.88367 13.2235 9.08436C13.6824 10.882 12.4516 10.6741 12.4516 10.6741L9.97623 8.29285" stroke="#00AD8C" stroke-width="1.2" stroke-linecap="round" stroke-linejoin="round"/>
<path d="M9.84391 5.18044C9.84391 5.18044 7.14598 7.59524 6.36719 6.56895C5.58841 5.54266 7.95258 3.71815 8.73136 3.05408C9.06512 2.76565 13.4041 3.72486 13.4041 3.72486L15.1772 8.93008L13.258 9.23864" stroke="#00AD8C" stroke-width="1.2" stroke-linecap="round" stroke-linejoin="round"/>
</svg>
